<svg xmlns="http://www.w3.org/2000/svg" xmlns:xlink="http://www.w3.org/1999/xlink" width="71" height="41" viewBox="0 0 71 41">
  <defs>
    <clipPath id="clip-path">
      <path id="Path" d="M0,0H25V41H0Z" transform="translate(1 1)" fill="none"/>
    </clipPath>
  </defs>
  <g id="Group_9" data-name="Group 9" transform="translate(-47 -42)">
    <g id="Clipped" transform="translate(70 41)">
      <path id="Path-2" data-name="Path" d="M0,0H47V41H0Z" transform="translate(1 1)" fill="none"/>
      <g id="Group_7" data-name="Group 7">
        <g id="Group_8" data-name="Group 8">
          <path id="Path-3" data-name="Path" d="M41.943,32.364H30.6V24.726H41.2a4.674,4.674,0,0,0,3.449-1.3,4.167,4.167,0,0,0,1.307-3.054,4.007,4.007,0,0,0-1.321-3.145,4.961,4.961,0,0,0-3.434-1.18H30.6V8.635H41.945q4.7,0,4.7-4.247Q46.642,0,41.93,0H25.374a4.669,4.669,0,0,0-3.5,1.362,4.363,4.363,0,0,0-.448.534,4.666,4.666,0,0,1,1.867,3.847c0,.2-.041.464-.085.838a6.061,6.061,0,0,1-.156.833A3.61,3.61,0,0,1,20.573,9.78a27.315,27.315,0,0,1-4.434-1.19,13.866,13.866,0,0,0-4.155-.832A12.074,12.074,0,0,0,4.95,9.808,10.494,10.494,0,0,0,.887,15.461,21.442,21.442,0,0,0,0,20.4a15,15,0,0,0,2.739,8.579q2.815,3.816,8.854,3.816a16.024,16.024,0,0,0,6.24-1.176,8.358,8.358,0,0,1,2.738-.682h0a4.5,4.5,0,0,1,1.9,1.008,3.865,3.865,0,0,1,1.321,3.019,4.764,4.764,0,0,1-2.337,4.186,4.376,4.376,0,0,0,.584.616A5.454,5.454,0,0,0,25.749,41H41.927Q47,41,47,36.514,47,32.365,41.943,32.364Z" transform="translate(1 1)" fill="#91dd47"/>
          <path id="Path-4" data-name="Path" d="M0,0H47V41H0Z" transform="translate(1 1)" fill="none"/>
        </g>
      </g>
    </g>
    <g id="Clipped-2" data-name="Clipped" transform="translate(46 41)">
      <path id="Path-5" data-name="Path" d="M0,0H25V41H0Z" transform="translate(1 1)" fill="none"/>
      <g id="Clipped-3" data-name="Clipped" clip-path="url(#clip-path)">
        <path id="Path-6" data-name="Path" d="M17.972,33.248c-.173-.286-.328-.586-.488-.883H9.119V24.726h5.944a31.153,31.153,0,0,1-.308-4.373,29.614,29.614,0,0,1,.307-4.3H9.12V8.636h8.318A20.368,20.368,0,0,1,20.549,4.3,19.007,19.007,0,0,1,24.911.828,4.6,4.6,0,0,0,22,0L4.37,0A4.054,4.054,0,0,0,1.183,1.362,4.789,4.789,0,0,0,0,4.7l0,31.69a4.426,4.426,0,0,0,1.331,3.37A4.686,4.686,0,0,0,4.71,41H22a5.278,5.278,0,0,0,3-.756A19.148,19.148,0,0,1,17.972,33.248Z" transform="translate(1 1)" fill="#91dd47"/>
      </g>
    </g>
  </g>
</svg>
